# xmcd
# 
# Track frame offsets:
#   150
#   17920
#   38937
#   54860
#   68575
#   88077
#   105710
#   123485
#   143590
#   160925
#   180460
#   196632
#   212000
#   228685
#   242542
# 
# Disc length: 3464 seconds
# 
# Revision: 0
# Processed by: cddbd v1.5.1PL2 Copyright (c) Steve Scherf et al.
# Submitted via: Synapstar 1.0 
# 
DISCID=c20d860f
DTITLE=Various Artist - mm music maestro
DYEAR=1900
DGENRE=Country
TTITLE0=dixie chicks - heartbreak town
TTITLE1=brooks and dunn - only in america
TTITLE2=martina mcbride - when god rearin' women get the....
TTITLE3=toby keith - i'm just talkin'bout tonight
TTITLE4=mark wills - loving every minute
TTITLE5=phil vasser - six-pack summer
TTITLE6=chely wright - never love you enough
TTITLE7=jeff carson - real life (i never was the same again)
TTITLE8=jessica andrews - helplessly,hopelessly
TTITLE9=billy ray cyrus - southern rain
TTITLE10=dwight yoakam - i want you to want me
TTITLE11=coley mccabe - who am i to you
TTITLE12=pam tillis - thunder and roses
TTITLE13=mark mcguinn - that's a plan
TTITLE14=travis tritt - love of a woman
EXTD=MediaType: Karaoke CD+G Producer: Music Maestro
EXTT0=
EXTT1=
EXTT2=
EXTT3=
EXTT4=
EXTT5=
EXTT6=
EXTT7=
EXTT8=
EXTT9=
EXTT10=
EXTT11=
EXTT12=
EXTT13=
EXTT14=
PLAYORDER=
